<?xml version="1.0" encoding="utf-8"?>
<!-- Generator: Adobe Illustrator 22.0.1, SVG Export Plug-In . SVG Version: 6.00 Build 0)  -->
<svg version="1.0" id="Calque_1" xmlns="http://www.w3.org/2000/svg" xmlns:xlink="http://www.w3.org/1999/xlink" x="0px" y="0px"
	 viewBox="0 0 1100 1200" enable-background="new 0 0 1100 1200" xml:space="preserve">
<path fill="none" stroke="#FFFFFF" stroke-linecap="round" stroke-linejoin="round" stroke-miterlimit="10" d="M1025.7,312.5
	L1025.7,312.5c-34.3-9.3-71.2,9.3-80.1,45.8l-84.8,190.4c-16.1,29.7-36.5,25-39-9.3l52.6-348.6c6.8-34.3-11.4-71.2-45.8-78
	s-61.9,18.2-68.7,55.1c0,0-52.6,313.8-66.6,343.9c-13.6,29.7-29.7,20.8-27.6-2.1c0-16.1,27.6-391.8,27.6-391.8
	c2.1-36.5-25-66.6-61.9-68.7c-36.5-2.1-52.6,25-55.1,61.9c0,0-39,366.8-43.7,391.8c-4.7,25-25,27.6-29.7,0s0-327.8,0-327.8
	c0-36.5-29.7-66.6-66.6-66.6s-50.5,29.7-50.5,66.6c0,0-18.2,329.9-13.6,368.9c6.8,39,9.3,206.1-27.6,210.8
	c-39,4.7-94.1-55.1-121.3-105.6c-20.8-34.3-82.7-50.5-132.7-43.7c-75.5,6.8-32.2,66.6,20.8,125.9
	c107.7,119.2,137.4,240.9,187.9,323.1c34.3,55.1,64,91.6,197.2,96.3h206.1c94.1,0,158.2-61.9,185.7-171.7
	c0-6.8,22.9-199.3,34.3-263.8c11.4-78,119.2-348.6,119.2-348.6C1050.7,328.7,1060,321.4,1025.7,312.5z"/>
</svg>
